<svg width="128" height="72" viewBox="0 0 128 72" xmlns="http://www.w3.org/2000/svg">
    <g fill="#FFF" fill-rule="nonzero">
        <path d="M13.46 26.027c4.03 0 7.207-1.15 9.547-3.448 2.34-2.3 3.502-5.49 3.502-9.591 0-4.1-1.162-7.292-3.502-9.574S17.49 0 13.46 0C9.445 0 6.27 1.15 3.93 3.431 1.588 5.713.408 8.904.408 13.005c0 4.1 1.18 7.309 3.52 9.608 2.34 2.299 5.516 3.448 9.53 3.448v-.034zm.939-1.2c-1.179 0-2.22-.55-3.126-1.665-.905-1.115-1.588-2.522-2.05-4.22A36.677 36.677 0 0 1 8.233 14c-.205-1.596-.308-3.054-.308-4.392 0-2.625.41-4.667 1.23-6.142.82-1.476 1.93-2.214 3.33-2.214 1.18 0 2.221.55 3.126 1.665.906 1.115 1.589 2.522 2.033 4.22.444 1.699.769 3.329.974 4.89.205 1.561.307 3.02.307 4.358 0 2.676-.427 4.752-1.264 6.228-.837 1.475-1.947 2.213-3.33 2.213h.068zM40.873 8.064c-2.1 0-3.86.995-5.278 2.985l-.068-.034.034-3.02c-2.562.772-5.278 1.253-8.147 1.441v.206c.717.43 1.196.807 1.435 1.133.239.326.358.823.358 1.475v16.23c0 1.253-.102 2.094-.324 2.505-.222.412-.7.875-1.452 1.373v.257h10.778v-.257c-1.042-.463-1.725-.91-2.033-1.338-.307-.43-.461-1.27-.461-2.522V24.5h.068a7.697 7.697 0 0 0 4.51 1.424c1.964 0 3.689-.755 5.192-2.282 1.503-1.527 2.255-3.826 2.255-6.914 0-2.951-.684-5.13-2.05-6.537-1.367-1.407-2.955-2.11-4.783-2.11l-.034-.017zm-2.05 16.505c-.768 0-1.417-.48-1.93-1.459-.512-.978-.905-2.127-1.16-3.465v-7.48c.802-1.082 1.605-1.63 2.424-1.63 1.896 0 2.836 2.573 2.836 7.703 0 4.22-.718 6.33-2.17 6.33zM55.272 25.907c2.58 0 4.629-1.287 6.149-3.86l-.205-.206c-.7.72-1.452 1.08-2.255 1.08-1.486 0-2.22-1.012-2.203-3.019l.12-10.191h3.672l.17-1.184h-3.928v-5.13h-.41c-1.144 1.613-3.672 3.5-7.583 5.679v.635h1.588v11.255c0 1.63.461 2.865 1.383 3.689.923.823 2.084 1.235 3.502 1.235v.017zM66.22 6.348c.872 0 1.623-.292 2.255-.892.632-.6.94-1.304.94-2.128 0-.823-.308-1.527-.94-2.127-.632-.6-1.383-.892-2.255-.892a3.22 3.22 0 0 0-2.288.91c-.632.6-.957 1.303-.957 2.127 0 .823.308 1.527.94 2.127.632.6 1.383.91 2.271.91l.034-.035zm-4.73 19.25h10.077v-.24c-.735-.498-1.213-.96-1.435-1.39-.222-.429-.342-1.27-.342-2.522V7.996a37.875 37.875 0 0 1-8.267 1.492v.274c.53.464.889.807 1.076 1.03.188.223.342.617.479 1.2.136.584.205 1.425.205 2.523v6.948c0 1.253-.103 2.093-.308 2.522-.205.43-.7.875-1.469 1.339l-.017.274zM81.422 25.907c2.938 0 5.26-.79 6.986-2.368 1.725-1.578 2.579-3.809 2.579-6.69 0-2.883-.854-5.062-2.545-6.555-1.691-1.492-3.946-2.23-6.764-2.23-2.938 0-5.278.806-7.02 2.402-1.742 1.595-2.613 3.843-2.613 6.725 0 2.848.854 5.01 2.562 6.503 1.708 1.492 3.963 2.23 6.78 2.23l.035-.017zm.974-.995c-.906 0-1.657-.824-2.255-2.47a21.719 21.719 0 0 1-1.179-4.925c-.188-1.63-.29-3.054-.29-4.272 0-1.407.188-2.453.564-3.14.375-.686.854-1.029 1.434-1.029.889 0 1.64.84 2.238 2.505.598 1.664.99 3.328 1.178 4.975.188 1.648.274 3.072.274 4.29 0 1.372-.188 2.402-.547 3.07-.359.67-.837 1.013-1.417 1.013v-.017zM111.364 21.446v-7.892c0-1.115-.188-2.059-.564-2.848-.376-.79-.871-1.355-1.486-1.699-.615-.343-1.196-.583-1.725-.72a6.308 6.308 0 0 0-1.588-.206c-1.384 0-2.58.377-3.604 1.115-1.025.738-1.845 1.561-2.443 2.47V8.013c-2.784.824-5.5 1.304-8.147 1.441v.24c.751.618 1.23 1.184 1.435 1.7.204.514.307 1.543.307 3.087v6.983c0 1.253-.103 2.093-.307 2.522-.205.43-.7.875-1.47 1.339v.24h10.078v-.24c-.734-.498-1.213-.961-1.435-1.39-.222-.429-.341-1.27-.341-2.522v-8.527c.854-1.15 1.742-1.733 2.647-1.733.666 0 1.213.24 1.64.738.427.497.632 1.252.632 2.264 0 3.826-.017 6.246-.034 7.275-.052 1.252-.171 2.076-.36 2.488-.187.412-.682.875-1.485 1.39v.24h10.077v-.24c-.768-.464-1.264-.91-1.469-1.339-.205-.429-.307-1.27-.307-2.522h-.051zM121.424 26.027c2.067 0 3.672-.48 4.834-1.458 1.161-.978 1.742-2.265 1.742-3.878 0-1.458-.444-2.66-1.332-3.603-.888-.943-2.135-1.818-3.74-2.642-1.47-.738-2.546-1.355-3.212-1.87-.666-.515-1.008-1.15-1.008-1.904 0-.498.154-.893.461-1.184.308-.292.7-.446 1.196-.446 1.623.017 3.724 1.835 6.286 5.456l.256-.069-.53-5.456c-2.476-.6-4.44-.91-5.91-.91-1.844 0-3.364.447-4.543 1.356-1.178.91-1.776 2.18-1.776 3.809 0 .532.068 1.047.205 1.527.136.48.359.926.666 1.338.307.412.58.755.82 1.03.239.274.615.583 1.127.926.513.343.888.583 1.127.72.24.138.632.378 1.196.704 1.452.806 2.477 1.493 3.074 2.042.598.549.889 1.166.889 1.836 0 .531-.171.96-.513 1.27-.341.308-.785.462-1.315.462-1.828 0-4.116-2.007-6.85-6.039l-.255.035.666 5.867c2.647.738 4.8 1.098 6.473 1.098l-.034-.017zM19.164 39.488H0v.24c1.076.566 1.742 1.064 2.015 1.51.274.446.41 1.32.41 2.607v16.403c0 1.286-.136 2.161-.41 2.607-.273.446-.939.944-2.015 1.51v.24h12.622v-.24c-1.349-.566-2.203-1.064-2.545-1.492-.341-.43-.512-1.304-.512-2.625v-8.39l1.776-.035c2.101-.034 3.775 1.064 5.022 3.295h.17V47.67h-.17a6.985 6.985 0 0 1-2.05 2.145c-.854.583-1.844.875-2.955.875H9.582v-10.02h2.135c2.033 0 3.707.67 5.022 2.008a11.56 11.56 0 0 1 2.818 4.684h.24l-.633-7.875zM34.058 64.949c1.332 0 2.409-.36 3.228-1.064.82-.704 1.4-1.544 1.725-2.522l-.273-.155c-.393.892-.888 1.339-1.469 1.339-.563.017-.837-.36-.837-1.133l.171-7.532c.017-.652 0-1.235-.051-1.75-.051-.514-.222-1.098-.495-1.75a4.704 4.704 0 0 0-1.128-1.647c-.478-.446-1.161-.823-2.066-1.132-.906-.309-1.982-.463-3.229-.463-2.374 0-4.304.463-5.773 1.39-1.469.926-2.494 1.99-3.074 3.208l4.27 2.367.205-.034c.222-1.596.615-3.002 1.178-4.203.564-1.201 1.298-1.802 2.204-1.802.598 0 1.042.223 1.315.652.273.429.41.944.41 1.527l-.034 3.054c-3.45.84-6.132 1.853-8.045 3.02-1.913 1.166-2.87 2.659-2.87 4.46 0 1.219.427 2.214 1.298 3.003.872.79 2.033 1.184 3.485 1.184 1.417 0 2.664-.378 3.74-1.133s1.862-1.647 2.358-2.676h.068c-.051 1.03.205 1.921.768 2.676.564.755 1.52 1.133 2.87 1.133l.051-.017zm-6.132-3.586c-.53 0-.956-.223-1.28-.67-.325-.445-.496-1.097-.496-1.938 0-2.316 1.418-3.878 4.236-4.684l-.137 5.902c-.666.91-1.434 1.373-2.306 1.373l-.017.017zM48.15 64.949c1.212 0 2.305-.224 3.279-.67.973-.446 1.742-1.029 2.306-1.767a10.331 10.331 0 0 0 1.332-2.264c.325-.773.564-1.579.7-2.42l-.324-.137c-1.11 2.059-2.716 3.088-4.817 3.088-1.725 0-3.057-.652-3.997-1.956-.94-1.303-1.4-3.053-1.4-5.267 0-1.595.239-2.9.7-3.911.461-1.013 1.11-1.51 1.93-1.51.888 0 1.589.617 2.118 1.836.53 1.218.837 2.539.922 3.963l.24.12 3.962-3.037c-1.537-2.59-3.894-3.895-7.071-3.895-2.426 0-4.492.755-6.183 2.265-1.691 1.51-2.545 3.689-2.545 6.554 0 2.9.854 5.13 2.579 6.691 1.725 1.562 3.792 2.334 6.217 2.334l.051-.017zM62.702 64.949c2.579 0 4.629-1.287 6.149-3.86l-.205-.207c-.7.72-1.452 1.081-2.255 1.081-1.486 0-2.22-1.012-2.203-3.02l.12-10.19h3.672l.17-1.184h-3.928v-5.13h-.41c-1.144 1.612-3.672 3.5-7.584 5.679v.634h1.589v11.255c0 1.63.461 2.866 1.383 3.689.923.824 2.084 1.235 3.502 1.235v.018z"/>
        <path d="M77.955 64.949c2.937 0 5.26-.79 6.985-2.368 1.726-1.579 2.58-3.809 2.58-6.691 0-2.883-.854-5.062-2.545-6.554-1.691-1.493-3.946-2.23-6.764-2.23-2.938 0-5.278.806-7.02 2.401-1.742 1.596-2.613 3.843-2.613 6.726 0 2.848.854 5.01 2.562 6.502 1.708 1.493 3.962 2.23 6.78 2.23l.035-.016zm.973-.996c-.905 0-1.657-.823-2.254-2.47a21.719 21.719 0 0 1-1.179-4.924c-.188-1.63-.29-3.054-.29-4.272 0-1.407.188-2.454.563-3.14.376-.686.854-1.03 1.435-1.03.888 0 1.64.841 2.238 2.505.597 1.665.99 3.329 1.178 4.976.188 1.647.273 3.071.273 4.29 0 1.372-.187 2.401-.546 3.07-.359.67-.837 1.013-1.418 1.013v-.018zM88.271 64.605h10.71v-.24c-1.025-.463-1.691-.91-1.982-1.338-.29-.429-.444-1.27-.444-2.522v-8.922c.29-.583.7-.875 1.23-.875 1.008 0 2.34 1.133 3.997 3.38h.239l.87-6.64c-.443-.223-.939-.326-1.502-.326-1.35 0-2.443.344-3.262 1.03-.82.686-1.384 1.475-1.691 2.368h-.086l.086-3.449c-2.733.824-5.45 1.304-8.165 1.441v.24c.735.567 1.213 1.098 1.435 1.613.222.515.324 1.424.324 2.71v7.447c0 1.252-.102 2.093-.307 2.522-.205.429-.7.875-1.469 1.338l.017.223zM117.41 47.569v.274c1.264 1.047 1.896 1.99 1.896 2.83-.017.327-.085.67-.222 1.03-.12.31-.974 2.248-2.58 5.834l-3.193-6.211c-.29-.566-.444-1.047-.444-1.441 0-.67.53-1.356 1.571-2.06v-.274h-10.88v.275c.888.738 1.589 1.578 2.1 2.54l7.414 14.257-.461.875c-.906 1.767-2.75 2.642-5.551 2.642-.564 0-1.11-.035-1.64-.103l-.137.206L108.118 72c1.042-.67 2.118-1.613 3.229-2.83 1.11-1.219 2.05-2.643 2.818-4.273a579.244 579.244 0 0 0 5.858-12.645c.513-1.115.974-1.973 1.384-2.556.41-.583.956-1.184 1.657-1.819v-.274l-5.654-.034z"/>
    </g>
</svg>
