<svg width="20" height="20" viewBox="0 0 20 20" xmlns="http://www.w3.org/2000/svg">
    <g fill="none" fill-rule="evenodd">
        <circle fill="#074B52" cx="10" cy="10" r="10"/>
        <path d="m9.126 10.803-.254-3.807A28.336 28.336 0 0 1 8.8 5.399c0-.44.115-.783.346-1.03.23-.246.533-.369.91-.369.455 0 .76.158.914.473.153.315.23.77.23 1.363 0 .35-.019.704-.056 1.065l-.341 3.918c-.037.466-.117.823-.239 1.072a.624.624 0 0 1-.604.374c-.286 0-.485-.12-.596-.362-.111-.24-.19-.608-.238-1.1zm.882 5.229a1.25 1.25 0 0 1-.846-.314c-.241-.21-.362-.502-.362-.878 0-.329.115-.608.346-.839.23-.23.512-.345.846-.345.334 0 .619.115.854.345.236.23.354.51.354.839 0 .37-.12.662-.358.874a1.217 1.217 0 0 1-.834.318z" fill="#C7CCDB" fill-rule="nonzero"/>
    </g>
</svg>
