<svg width="177" height="61" viewBox="0 0 177 61" xmlns="http://www.w3.org/2000/svg">
    <g fill="#FFF" fill-rule="evenodd">
        <g fill-rule="nonzero">
            <path d="M83.936 24.322c3.275 0 5.856-.942 7.757-2.825 1.902-1.884 2.845-4.498 2.845-7.857 0-3.36-.943-5.974-2.845-7.843C89.793 3.927 87.211 3 83.936 3c-3.262 0-5.843.942-7.744 2.811-1.901 1.87-2.859 4.484-2.859 7.843s.958 5.987 2.859 7.87c1.901 1.884 4.482 2.826 7.744 2.826v-.028zm.763-.984c-.958 0-1.804-.45-2.54-1.364-.735-.913-1.29-2.066-1.665-3.457a30.265 30.265 0 0 1-.805-4.048 28.584 28.584 0 0 1-.25-3.598c0-2.15.333-3.823 1-5.032.666-1.209 1.568-1.813 2.706-1.813.957 0 1.804.45 2.54 1.363.735.914 1.29 2.066 1.65 3.458.362 1.391.625 2.727.792 4.006.166 1.279.25 2.473.25 3.57 0 2.192-.347 3.893-1.027 5.102-.68 1.208-1.582 1.813-2.707 1.813h.056zM106.21 9.606c-1.707 0-3.137.815-4.289 2.445l-.055-.028.028-2.473c-2.082.632-4.289 1.026-6.62 1.18v.169c.583.351.971.66 1.166.928.194.267.291.674.291 1.208v13.296c0 1.027-.083 1.715-.264 2.053-.18.337-.569.716-1.18 1.124v.21h8.758v-.21c-.847-.38-1.402-.745-1.652-1.096-.25-.352-.375-1.04-.375-2.066V23.07h.056a6.218 6.218 0 0 0 3.664 1.166c1.596 0 2.997-.618 4.218-1.87 1.222-1.25 1.832-3.133 1.832-5.663 0-2.418-.555-4.203-1.665-5.355-1.11-1.153-2.4-1.729-3.886-1.729l-.027-.014zm-1.666 13.52c-.624 0-1.152-.393-1.568-1.194-.416-.8-.736-1.743-.944-2.839v-6.128c.653-.885 1.305-1.335 1.97-1.335 1.541 0 2.305 2.108 2.305 6.31 0 3.458-.583 5.187-1.763 5.187zM117.908 24.223c2.096 0 3.761-1.054 4.996-3.162l-.166-.169c-.57.59-1.18.886-1.832.886-1.207 0-1.804-.83-1.79-2.474l.097-8.349h2.984l.138-.97h-3.191V5.783h-.333c-.93 1.321-2.984 2.867-6.162 4.652v.52h1.29v9.22c0 1.336.375 2.348 1.125 3.022.749.675 1.693 1.012 2.844 1.012v.014zM126.804 8.2a2.55 2.55 0 0 0 1.832-.73c.513-.492.763-1.069.763-1.743 0-.675-.25-1.251-.763-1.743a2.55 2.55 0 0 0-1.832-.731c-.722 0-1.346.253-1.86.745-.513.492-.777 1.068-.777 1.743 0 .674.25 1.25.764 1.743a2.573 2.573 0 0 0 1.845.745l.028-.029zm-3.844 15.77h8.188v-.197c-.597-.407-.985-.787-1.166-1.138-.18-.351-.277-1.04-.277-2.066V9.549a30.547 30.547 0 0 1-6.717 1.223v.225c.43.38.721.66.874.844.153.182.278.506.389.984.11.477.166 1.166.166 2.066v5.692c0 1.026-.083 1.715-.25 2.066-.166.351-.569.717-1.193 1.096l-.014.225zM139.155 24.223c2.387 0 4.275-.646 5.676-1.94 1.402-1.292 2.096-3.12 2.096-5.48 0-2.362-.694-4.147-2.068-5.37-1.374-1.223-3.206-1.827-5.496-1.827-2.386 0-4.288.66-5.703 1.968-1.416 1.307-2.124 3.148-2.124 5.51 0 2.332.694 4.103 2.082 5.326 1.388 1.223 3.22 1.827 5.51 1.827l.027-.014zm.791-.815c-.735 0-1.346-.675-1.832-2.024a17.915 17.915 0 0 1-.957-4.034c-.153-1.335-.236-2.502-.236-3.5 0-1.152.153-2.01.458-2.572.305-.562.694-.843 1.166-.843.721 0 1.332.689 1.818 2.052.485 1.364.805 2.727.957 4.076.153 1.35.222 2.516.222 3.514 0 1.124-.152 1.968-.444 2.516-.291.548-.68.83-1.152.83v-.015zM163.483 20.569v-6.465c0-.914-.153-1.687-.458-2.334-.305-.646-.708-1.11-1.207-1.391a6 6 0 0 0-1.402-.59 5.086 5.086 0 0 0-1.29-.169c-1.125 0-2.096.31-2.929.914-.832.604-1.499 1.279-1.984 2.023V9.564c-2.262.674-4.469 1.068-6.62 1.18v.197c.61.506 1 .97 1.166 1.392.166.421.25 1.265.25 2.53v5.72c0 1.026-.084 1.715-.25 2.066-.167.351-.57.717-1.194 1.096v.197h8.188v-.197c-.597-.407-.985-.787-1.166-1.138-.18-.351-.277-1.04-.277-2.066v-6.986c.694-.941 1.415-1.42 2.15-1.42.542 0 .986.198 1.333.605.347.408.514 1.026.514 1.855 0 3.135-.014 5.117-.028 5.96-.042 1.026-.139 1.7-.292 2.038-.152.337-.555.717-1.207 1.138v.197h8.188v-.197c-.625-.38-1.027-.745-1.194-1.096-.166-.351-.25-1.04-.25-2.066h-.04zM171.657 24.322c1.68 0 2.984-.394 3.927-1.195.944-.801 1.416-1.855 1.416-3.177 0-1.194-.36-2.178-1.082-2.951-.722-.773-1.735-1.49-3.04-2.165-1.193-.604-2.067-1.11-2.609-1.532-.541-.421-.819-.941-.819-1.56 0-.407.125-.73.375-.97.25-.238.57-.365.972-.365 1.318.014 3.025 1.504 5.107 4.47l.208-.057-.43-4.47c-2.013-.491-3.609-.744-4.802-.744-1.499 0-2.734.365-3.692 1.11-.957.745-1.443 1.785-1.443 3.12 0 .436.056.858.167 1.251.11.394.291.76.54 1.097.25.337.473.618.667.843.194.225.5.478.916.759.416.281.722.478.916.59.194.113.513.31.971.577 1.18.66 2.013 1.222 2.498 1.672.486.45.722.956.722 1.504 0 .436-.139.787-.416 1.04-.278.253-.639.38-1.069.38-1.485 0-3.344-1.645-5.565-4.948l-.208.028.541 4.807c2.151.605 3.9.9 5.26.9l-.028-.014zM88.57 34.366H73v.196c.874.464 1.416.872 1.638 1.237.222.366.333 1.082.333 2.137v13.436c0 1.054-.111 1.771-.333 2.137-.222.365-.764.773-1.638 1.236v.197h10.256v-.197c-1.097-.463-1.79-.87-2.068-1.222s-.416-1.069-.416-2.15v-6.874l1.443-.028c1.707-.028 3.067.872 4.08 2.699h.139v-6.1h-.14a5.702 5.702 0 0 1-1.664 1.757c-.694.478-1.5.717-2.401.717h-1.444v-8.209h1.735c1.652 0 3.012.549 4.08 1.645a9.486 9.486 0 0 1 2.29 3.837h.194l-.513-6.451zM100.672 55.223c1.083 0 1.957-.295 2.623-.871.666-.576 1.138-1.265 1.402-2.066l-.222-.127c-.32.731-.722 1.097-1.194 1.097-.458.014-.68-.296-.68-.928l.14-6.17c.013-.534 0-1.012-.043-1.434-.041-.421-.18-.9-.402-1.433a3.855 3.855 0 0 0-.916-1.35c-.389-.365-.944-.674-1.68-.927-.735-.253-1.609-.38-2.622-.38-1.93 0-3.497.38-4.69 1.139-1.194.759-2.027 1.63-2.499 2.628l3.47 1.94.166-.029c.18-1.307.5-2.46.958-3.443.458-.984 1.054-1.476 1.79-1.476.486 0 .847.183 1.069.534.222.352.333.773.333 1.251l-.028 2.502c-2.803.689-4.982 1.518-6.537 2.474-1.554.955-2.331 2.178-2.331 3.654 0 .998.347 1.813 1.055 2.46.707.646 1.651.97 2.83.97 1.153 0 2.166-.31 3.04-.928.874-.619 1.513-1.35 1.915-2.193h.056c-.042.843.166 1.574.624 2.193.458.618 1.235.927 2.332.927l.041-.014zm-4.982-2.937c-.43 0-.777-.183-1.04-.548-.264-.366-.403-.9-.403-1.589 0-1.897 1.152-3.176 3.442-3.837l-.111 4.835c-.542.745-1.166 1.125-1.874 1.125l-.014.014zM112.121 55.223c.986 0 1.874-.182 2.665-.548.791-.365 1.415-.843 1.873-1.447a8.48 8.48 0 0 0 1.652-3.838l-.264-.112c-.902 1.687-2.206 2.53-3.913 2.53-1.402 0-2.484-.534-3.248-1.602-.763-1.069-1.138-2.502-1.138-4.315 0-1.307.195-2.376.57-3.205.374-.83.901-1.237 1.568-1.237.721 0 1.29.506 1.72 1.504.43.998.68 2.08.75 3.247l.194.098 3.22-2.487c-1.25-2.123-3.164-3.19-5.746-3.19-1.97 0-3.65.618-5.023 1.854-1.374 1.237-2.068 3.022-2.068 5.37 0 2.375.694 4.202 2.095 5.48 1.402 1.28 3.081 1.912 5.052 1.912l.041-.014zM123.945 55.223c2.096 0 3.761-1.054 4.996-3.162l-.166-.169c-.57.59-1.18.886-1.832.886-1.207 0-1.804-.83-1.79-2.474l.097-8.349h2.984l.138-.97h-3.192v-4.202h-.333c-.93 1.321-2.983 2.867-6.161 4.652v.52h1.29v9.22c0 1.336.375 2.348 1.124 3.022.75.675 1.693 1.012 2.845 1.012v.014z"/>
            <path d="M136.338 55.223c2.387 0 4.274-.646 5.676-1.94 1.402-1.292 2.096-3.12 2.096-5.48 0-2.362-.694-4.147-2.068-5.37-1.374-1.223-3.206-1.827-5.496-1.827-2.387 0-4.288.66-5.703 1.968-1.416 1.307-2.124 3.148-2.124 5.51 0 2.333.694 4.103 2.082 5.326 1.388 1.223 3.22 1.827 5.51 1.827l.027-.014zm.791-.815c-.735 0-1.346-.674-1.832-2.024a17.915 17.915 0 0 1-.957-4.034c-.153-1.335-.236-2.501-.236-3.5 0-1.152.152-2.01.458-2.571.305-.563.694-.844 1.166-.844.721 0 1.332.689 1.818 2.052.485 1.364.804 2.727.957 4.076.153 1.35.222 2.516.222 3.514 0 1.125-.153 1.968-.444 2.516-.291.548-.68.83-1.152.83v-.015zM144.72 54.942h8.702v-.197c-.833-.379-1.374-.744-1.61-1.096-.236-.351-.361-1.04-.361-2.066v-7.309c.236-.477.569-.716 1-.716.818 0 1.9.927 3.247 2.768h.194l.708-5.439c-.361-.183-.764-.267-1.222-.267-1.096 0-1.984.281-2.65.843-.666.563-1.124 1.21-1.374 1.94h-.07l.07-2.825a27.56 27.56 0 0 1-6.634 1.18v.197c.597.464.986.9 1.166 1.322.18.421.264 1.166.264 2.22v6.1c0 1.026-.084 1.715-.25 2.066-.167.352-.57.717-1.194 1.097l.014.182zM168.396 40.986v.224c1.027.858 1.54 1.63 1.54 2.32-.014.267-.07.548-.18.843-.097.253-.791 1.841-2.096 4.779l-2.595-5.088c-.236-.464-.36-.858-.36-1.181 0-.548.43-1.11 1.276-1.687v-.225h-8.84v.225a6.923 6.923 0 0 1 1.707 2.08l6.023 11.68-.375.717c-.735 1.448-2.234 2.165-4.51 2.165-.458 0-.902-.029-1.332-.085l-.111.169L160.846 61c.847-.548 1.721-1.321 2.623-2.32.902-.997 1.666-2.164 2.29-3.499 1.887-3.991 3.47-7.449 4.76-10.358.416-.914.791-1.617 1.124-2.095.333-.478.777-.97 1.346-1.49v-.224l-4.593-.028z"/>
        </g>
        <path d="M30 0a29.86 29.86 0 0 1 15.842 4.519 25.364 25.364 0 0 0-1.953-.075C29.775 4.444 18.333 15.886 18.333 30S29.775 55.556 43.89 55.556c.657 0 1.308-.025 1.953-.074A29.868 29.868 0 0 1 30 60C13.431 60 0 46.569 0 30 0 13.431 13.431 0 30 0zm14.444 14.444C53.036 14.444 60 21.41 60 30s-6.964 15.556-15.556 15.556c-4.529 0-8.606-1.936-11.449-5.026 4.396-1.48 7.56-5.636 7.56-10.53 0-4.894-3.164-9.05-7.559-10.531a15.512 15.512 0 0 1 11.448-5.025z"/>
    </g>
</svg>
